<?xml version="1.0" encoding="UTF-8"?>
<!DOCTYPE svg PUBLIC "-//W3C//DTD SVG 1.1//EN" "http://www.w3.org/Graphics/SVG/1.1/DTD/svg11.dtd">
<!-- Creator: CorelDRAW 2019 (64 Bit) -->
<svg xmlns="http://www.w3.org/2000/svg" xml:space="preserve" width="169.333mm" height="169.333mm" version="1.1" style="shape-rendering:geometricPrecision; text-rendering:geometricPrecision; image-rendering:optimizeQuality; fill-rule:evenodd; clip-rule:evenodd"
viewBox="0 0 16933.32 16933.32"
 xmlns:xlink="http://www.w3.org/1999/xlink">
 <defs>
  <style type="text/css">
   <![CDATA[
    .fil0 {fill:#00E900;fill-rule:nonzero}
   ]]>
  </style>
 </defs>
 <g id="Camada_x0020_1">
  <metadata id="CorelCorpID_0Corel-Layer"/>
  <path class="fil0" d="M12700.59 6956.25c-26.59,-69.84 -54.14,-139.35 -82.77,-208.4 -296.99,123.06 -594.06,246.1 -891.03,369.08 -144.04,59.71 -288.07,119.34 -432.02,179.03 -5.48,2.25 -27.41,7.31 -30.52,12.61 -5.08,8.78 23.75,60.43 29.1,73.69 18.08,44.82 35.67,89.89 52.86,135.03 65.25,171.39 124.4,345.12 177.39,520.64 202.71,672.03 316.96,1372.76 326.23,2075 8.33,635.08 -68.36,1277.47 -267.89,1882.1 -174.49,528.67 -448.19,1034.69 -850.22,1425.16 -49.88,48.52 -101.45,95.78 -155.54,139.56 144.37,-6.29 291.85,-40.13 430.81,-78.1 156.61,-42.79 308.49,-101.81 453.53,-174.64 240.2,-120.54 458.82,-281.63 649.22,-471.07 316.34,-314.73 552.13,-703.04 720.6,-1114.49 188.42,-460.2 295.71,-951.57 344.09,-1445.61 53.28,-543.97 35.13,-1094.46 -40.59,-1635.45 -80.49,-575.18 -226.6,-1141.31 -433.25,-1684.14zm-2647.92 1286.49c-44.53,-125.56 -92.32,-249.96 -143.28,-372.94 -355.6,147.27 -711.21,294.56 -1066.75,441.84 -78.03,32.36 -156.13,64.63 -234.18,97 -12.05,5.01 -40.46,10.61 -49.19,20.43 -8.4,9.21 6.21,27.21 11.3,39.66 20.78,51.31 40.6,103.09 59.68,155.14 163.33,445.77 269.45,912.93 329.21,1383.53 66.05,520.91 77.43,1052.76 3.85,1573.46 -300.9,-220.85 -574.2,-485.62 -820.42,-765.43 -253.27,-287.74 -484.28,-594.54 -686.92,-919.98 -100.78,-161.76 -194.52,-327.93 -279.67,-498.36 -42.09,-84.26 -82.02,-169.55 -119.52,-255.9 -5.68,-13.07 -23.14,-73.93 -33.1,-76.1 -2.36,-0.53 -6.29,3.53 -8.73,3.67 -13.06,0.67 -32.08,13.2 -44.05,18.13 -25.73,10.76 -51.43,21.39 -77.16,32.02 -73.44,30.47 -146.94,60.92 -220.44,91.31 -322.17,133.48 -644.41,266.95 -966.57,400.41 -6.1,2.52 -29.91,8 -33.44,13.82 -8.81,14.54 30.66,81.15 37.91,97.87 73.02,167.93 156.54,331.46 246.29,490.91 194.11,345.12 420.5,672.65 672.7,977.84 234.92,284.47 491.78,551.49 774.42,788.86 289.68,243.2 610.29,461.89 964.88,598.34 79.12,30.45 162.09,61.11 245.47,77.49 -142.95,244.89 -365.42,454.16 -636.28,547.09 -301.39,103.44 -630.11,57.81 -923.78,-49 -311.29,-113.16 -595.81,-292.18 -856.81,-494.1 -254.61,-197.1 -488.52,-420.04 -705.45,-657.81 -445.95,-488.96 -828.83,-1046.95 -1104.43,-1649.48 -16.44,-35.93 -32.48,-72.15 -48.12,-108.49 -3.66,-8.54 -17.73,-55.11 -24.98,-56.93 -4.26,-1.01 -17.59,7.31 -21.45,8.94 -39.25,16.18 -78.37,32.48 -117.57,48.66 -142.39,59.02 -284.8,117.97 -427.2,176.93 -160.28,66.46 -320.55,132.79 -480.75,199.19 -61.53,25.52 -123.06,50.96 -184.56,76.48 -34.38,14.22 -74.65,25.38 -106.89,44.26 -4.45,2.59 -9.93,4.07 -14.75,6.1 192.7,465.27 430.87,911.84 709.65,1331.29 265.45,399.21 567.99,774.45 905.92,1114.7 315.01,317.22 661.46,604.74 1038.59,845.43 344.92,220.13 716.96,401.72 1109.86,518.34 360.13,106.94 738.07,157.44 1113.37,126.97 515.4,-41.83 1004.59,-246.16 1400.28,-578.23 410.41,-344.51 703.95,-812 900.1,-1306.64 185.91,-468.79 289.13,-968.22 332.58,-1469.71 43.86,-505.11 26.8,-1015.12 -40.06,-1517.47 -71.06,-534.45 -199.2,-1061.44 -379.56,-1569.54zm-523.86 -5034.85c568.66,286.51 1077.09,686.47 1520.27,1141.45 490.02,503.09 904.72,1079.35 1236.55,1697.91 86.64,161.64 167.66,326.32 242.71,493.56 19.76,44.13 39.12,88.39 58.08,132.87 5.62,13.2 21.72,70.12 31.54,72.69 5.95,1.63 25.04,-10.36 30.45,-12.58 144.02,-59.63 288.07,-119.34 432.09,-178.97 296.99,-123.04 594.04,-246.02 891.03,-369.08 -28.62,-69.04 -58.28,-137.74 -88.86,-205.97 -237.64,-529.82 -534.63,-1033.54 -884.42,-1497.17 -328.99,-436.02 -705.45,-838.14 -1127.7,-1185.16 -383.56,-315.14 -806.92,-586.75 -1265.46,-778.85 -410.09,-171.9 -851.37,-279.67 -1297.61,-278.58 -268.63,0.75 -537.06,41.42 -792.15,126.04 -154.04,51.09 -303.2,116.74 -444.2,197.29 -125.07,71.33 -253.32,151.74 -359.86,249.28 69.24,-7.25 139.09,-10.22 208.66,-11.3 560.41,-8.13 1111.74,156.14 1608.88,406.57zm-5213.16 6977.52c4.81,-1.96 9.75,-4.74 14.83,-6.08 36.07,-9.42 72.42,-29.99 106.81,-44.26 61.52,-25.46 123.03,-50.98 184.56,-76.42 160.2,-66.48 320.55,-132.81 480.75,-199.13l427.2 -177c39.2,-16.25 78.38,-32.42 117.57,-48.67 3.86,-1.69 19.23,-5.2 21.45,-8.92 3.86,-6.37 -19.15,-49.35 -22.52,-57.95 -14.7,-36.76 -28.92,-73.63 -42.73,-110.66 -231.13,-620.94 -355.05,-1286.2 -385.3,-1947.41 -14.75,-321.45 -7.12,-644.5 33.63,-963.97 41.77,-327.32 116.42,-655.11 256.51,-955.22 132.13,-283.21 332.33,-547.92 618.56,-687.96 257.26,-125.74 562.58,-135.16 836.76,-63.01 -47.39,70.53 -84.34,150.86 -118.8,228.38 -154.23,347.28 -226.39,728.61 -259.22,1105.35 -32.02,367.8 -24.84,738.17 10.15,1105.41 37.51,394.14 109.03,785.82 215.78,1167.15 49.35,176.26 105.85,351.03 173,521.25 6.69,16.98 25.92,92.05 42.36,96.04 6.64,1.61 27.34,-11.3 33.44,-13.81 322.16,-133.54 644.33,-266.94 966.57,-400.42 73.49,-30.46 146.99,-60.86 220.44,-91.38 25.72,-10.63 51.43,-21.24 77.16,-31.87 11.97,-4.95 34.3,-9.55 44.05,-18.28 1.84,-1.61 7.44,-1.56 8.73,-3.59 5.49,-8.6 -25.17,-63.95 -30.39,-77.22 -34.51,-87.59 -66.59,-176.19 -96.37,-265.46 -60.38,-180.72 -111.54,-364.54 -154.65,-550.15 -86.84,-373.4 -140.38,-753.72 -164.81,-1136.2 -23.75,-372.08 -17.74,-752.52 38.91,-1121.47 420.24,316.23 788.16,700.26 1109.79,1115.31 290.56,375.03 545.79,780.4 745.58,1211.2 23.29,50.23 45.76,100.84 67.42,151.82 5.28,12.38 7.58,35.4 20.03,36.07 13.12,0.67 37.22,-15.37 49.27,-20.43 78.05,-32.29 156.15,-64.64 234.18,-96.93 355.54,-147.27 711.15,-294.62 1066.75,-441.91 -50.98,-123.04 -105.12,-244.82 -162.37,-365.1 -231.76,-486.77 -513.79,-949.94 -841.44,-1378.17 -307.94,-402.53 -656.5,-775.2 -1044.66,-1101.37 -385.33,-323.88 -811.45,-604.09 -1274.4,-804.03 -488.39,-210.97 -1026.52,-334.01 -1560.34,-287.45 -514.59,45.02 -1005.01,246.51 -1398.98,581.34 -286.9,243.86 -518.45,546.75 -697.53,877.06 -195.35,360.28 -330.03,751.77 -418.28,1151.38 -96.45,436.77 -138.08,885.11 -136.58,1332.09 1.63,479.62 52.99,958.89 147.69,1428.95 99.34,493.69 246.76,977.84 439.44,1443.1z"/>
  <path class="fil0" d="M13538.15 6946.62l0 173.61 149.05 0c61.38,0 91.17,-28.03 91.17,-85.76 0,-58 -29.79,-87.85 -91.17,-87.85l-149.05 0zm138.48 261.33l-138.48 0 0 201.69 -99.95 0 0 -548.84 250.75 0c61.34,0 108.71,13.93 142.07,43.86 33.23,29.83 50.84,70.18 50.84,121.01 0,78.85 -36.84,131.44 -108.7,157.71l126.22 224.44 -113.98 0 -108.77 -199.87zm-40.27 438.45c138.56,0 254.23,-49.2 345.46,-145.59 91.09,-96.45 136.79,-213.89 136.79,-350.66 0,-136.8 -45.7,-252.53 -136.79,-348.92 -91.23,-96.45 -205.21,-143.76 -343.69,-143.76 -138.54,0 -254.29,47.31 -345.38,143.76 -91.25,96.39 -136.79,212.12 -136.79,348.92 0,136.77 45.54,252.52 136.79,348.97 91.09,96.45 206.84,143.76 345.38,143.76l-1.77 3.52zm-415.5 -80.74c-115.8,-115.67 -173.66,-254.08 -173.66,-417.34 0,-163.06 57.86,-301.68 173.66,-417.35 115.67,-115.73 254.23,-173.46 417.27,-173.46 161.29,0 299.83,57.73 415.57,173.46 115.67,115.67 173.54,254.29 173.54,417.35 0,163.26 -57.87,301.67 -173.54,417.34 -115.74,115.73 -254.28,173.67 -415.57,173.67 -163.04,0 -301.6,-57.94 -417.27,-173.67z"/>
  <path class="fil0" d="M8466.66 1169.77c-4023.37,0 -7296.68,3273.35 -7296.68,7296.72 0,4023.69 3273.31,7297.12 7296.68,7297.12 4023.37,0 7296.66,-3273.43 7296.66,-7297.12 0,-4023.37 -3273.29,-7296.72 -7296.66,-7296.72zm0 15762.62c-4667.83,0 -8465.42,-3797.78 -8465.42,-8465.9 0,-4667.8 3797.59,-8465.56 8465.42,-8465.56 4667.83,0 8465.41,3797.76 8465.41,8465.56 0,4668.12 -3797.58,8465.9 -8465.41,8465.9z"/>
 </g>
</svg>
