<?xml version="1.0" encoding="UTF-8"?>
<!DOCTYPE svg PUBLIC "-//W3C//DTD SVG 1.1//EN" "http://www.w3.org/Graphics/SVG/1.1/DTD/svg11.dtd">
<!-- Creator: CorelDRAW 2019 (64 Bit) -->
<svg xmlns="http://www.w3.org/2000/svg" xml:space="preserve" width="169.333mm" height="50.3478mm" version="1.1" style="shape-rendering:geometricPrecision; text-rendering:geometricPrecision; image-rendering:optimizeQuality; fill-rule:evenodd; clip-rule:evenodd"
viewBox="0 0 16933.32 5034.78"
 xmlns:xlink="http://www.w3.org/1999/xlink">
 <defs>
  <style type="text/css">
   <![CDATA[
    .fil1 {fill:#00E900;fill-rule:nonzero}
    .fil0 {fill:#181829;fill-rule:nonzero}
   ]]>
  </style>
 </defs>
 <g id="Camada_x0020_1">
  <metadata id="CorelCorpID_0Corel-Layer"/>
  <path class="fil0" d="M6101 3230.63c-145.07,0 -259.38,-37.51 -360.33,-98.48 -100.94,-60.98 -176.66,-150.7 -212.42,-253.74l284.67 -89.36c52.57,119.84 149.33,180.86 290.21,180.86 69.35,0 121.95,-12.63 159.79,-37.87 37.85,-25.25 56.76,-60.99 56.76,-105.12 0,-44.18 -25.22,-79.95 -77.77,-105.15 -52.6,-25.24 -115.66,-46.28 -189.27,-63.11 -73.59,-16.81 -147.2,-37.84 -220.79,-63.04 -73.6,-25.22 -136.67,-69.4 -189.24,-130.41 -52.57,-60.94 -77.79,-138.76 -77.79,-233.38 0,-117.77 44.13,-216.58 134.57,-296.52 90.41,-79.87 212.36,-119.82 365.87,-119.82 136.68,0 250.23,31.53 342.75,94.63 92.52,63.06 155.62,147.19 191.33,252.33l-285.97 90.39c-48.35,-124.05 -130.37,-185.03 -246.01,-185.03 -60.98,0 -109.35,12.59 -142.98,37.84 -33.66,25.24 -50.47,58.88 -50.47,103.03 0,39.95 18.91,73.61 56.78,100.97 37.87,27.3 84.13,46.23 138.77,58.85 54.69,12.61 115.64,29.46 180.84,50.48 65.19,21 126.18,44.15 180.85,69.37 54.66,25.24 100.92,65.19 138.79,121.97 37.81,56.78 56.75,126.19 56.75,208.16 0,119.87 -46.26,218.67 -138.78,296.51 -92.52,77.8 -220.78,115.64 -386.91,115.64z"/>
  <polygon class="fil0" points="7082.8,3209.6 6788.42,3209.6 6788.42,2168.74 7082.8,2168.74 "/>
  <path class="fil0" d="M8665.95 2408.45l0 428.96c0,94.62 37.87,140.88 111.46,140.88 46.25,0 94.62,-18.93 145.09,-58.88l121.95 203.98c-90.41,73.58 -195.54,111.42 -315.38,111.42 -111.48,0 -199.79,-33.63 -264.99,-100.88 -65.16,-67.33 -96.72,-166.13 -96.72,-298.63l0 -428.96 -172.42 0 0 -239.69 185.04 0 60.99 -235.53 220.8 0 0 235.53 300.68 0 0 239.69 -296.5 2.11z"/>
  <path class="fil0" d="M9607.87 2372.71c-56.78,0 -105.15,18.94 -145.09,56.79 -39.98,37.84 -63.09,88.28 -69.38,153.5l420.54 0c-4.2,-65.22 -25.24,-117.79 -63.09,-155.63 -37.84,-37.85 -86.21,-56.79 -142.98,-56.79l0 2.13zm487.87 566.92c-88.31,191.35 -248.16,293.11 -471.04,293.11 -170.34,0 -302.83,-50.49 -397.43,-149.3 -94.65,-98.83 -140.88,-231.27 -140.88,-395.32 0,-159.82 48.34,-290.16 145.08,-393.2 96.71,-103.03 222.89,-153.5 376.4,-153.5 166.13,0 294.38,58.85 386.88,176.59 92.55,117.8 126.18,267.07 100.96,447.9l-704.42 0c6.29,73.63 29.41,130.37 69.38,170.34 39.95,39.95 94.6,58.88 164.03,58.88 96.7,0 170.31,-44.16 220.78,-134.57l250.26 79.07z"/>
  <path class="fil0" d="M10560.25 3211.73l-294.4 0 0 -1040.91 271.25 0 0 189.27c56.81,-143.01 161.95,-214.49 317.53,-214.49 166.13,0 277.59,71.48 334.35,212.36 60.95,-140.88 172.41,-212.36 334.33,-212.36 128.26,0 222.91,42.05 283.87,124.1 60.99,81.95 92.52,193.43 92.52,334.31l0 607.72 -294.37 0 0 -590.91c0,-142.99 -61,-214.47 -182.95,-214.47 -60.99,0 -107.23,18.94 -140.89,56.78 -33.64,37.85 -50.46,90.42 -50.46,159.8l0 586.67 -294.4 0 0 -590.88c0,-142.99 -60.95,-214.45 -185.01,-214.45 -61.01,0 -107.27,18.94 -140.88,56.76 -33.67,37.82 -50.49,90.44 -50.49,159.79l0 590.91z"/>
  <path class="fil0" d="M13491.08 3209.6l-294.39 0 0 -1040.86 269.14 0 0 222.91c52.58,-166.13 153.51,-248.13 302.79,-248.13 44.18,0 79.89,8.39 107.24,23.12l-50.44 283.86c-33.67,-8.41 -69.43,-12.62 -105.17,-12.62 -75.68,0 -132.47,14.7 -170.29,46.26 -37.87,31.56 -56.8,88.34 -56.8,172.45l-2.08 553.01z"/>
  <path class="fil0" d="M14420.67 2387.42c-69.41,0 -126.16,27.35 -168.24,82.02 -42.05,54.65 -63.06,128.26 -63.06,222.91 0,94.57 21.01,168.21 63.06,220.75 42.08,52.58 98.83,79.95 170.34,79.95 92.51,0 164,-44.18 212.36,-134.57l246.03 88.26c-39.95,88.31 -98.83,157.74 -178.73,210.31 -79.9,52.55 -178.73,77.76 -294.39,77.76 -153.5,0 -277.55,-50.46 -374.29,-153.5 -96.74,-103.01 -145.09,-233.38 -145.09,-391.09 0,-164 50.45,-296.49 151.4,-397.43 100.94,-100.91 227.1,-151.37 378.5,-151.37 212.39,0 363.77,92.49 452.1,277.56l-233.42 119.86c-27.33,-52.62 -58.86,-90.42 -92.52,-115.63 -33.64,-25.25 -73.59,-37.87 -121.95,-37.87l-2.1 2.08z"/>
  <path class="fil0" d="M7122.77 1865.8c0,100.77 -81.67,182.44 -182.41,182.44 -100.78,0 -182.43,-81.67 -182.43,-182.44 0,-100.73 81.65,-182.4 182.43,-182.4 100.74,0 182.41,81.67 182.41,182.4z"/>
  <path class="fil0" d="M8146.67 2894.1c0,100.99 -39.93,183.09 -119.7,246.03 -80.02,63.19 -189.32,94.78 -328.15,94.78 -119.89,0 -220.68,-25.35 -302.78,-73.56 -78.11,-46.14 -129.46,-113.06 -153.96,-199.07l234.61 -73.59 11.85 -2.9c35.71,90.39 109.3,136.72 220.9,136.72l2.08 0c107.22,0 161.87,-25.34 161.87,-96.82 0,-25.15 -14.75,-46.13 -44.26,-62.97 -29.32,-16.83 -67.11,-29.52 -111.4,-38.02 -7.27,-1.45 -14.53,-2.93 -22.01,-4.58 -38.03,-7.92 -78.98,-18.71 -123.03,-30.96 -52.57,-14.75 -100.99,-33.66 -145.04,-54.87 -33.03,-15.58 -62.57,-37.19 -87.49,-65.45 -8.54,-9.56 -16.62,-19.96 -24.11,-31.18 -29.31,-44.25 -44.06,-96.83 -44.06,-157.71 0,-96.66 37.82,-176.65 111.38,-239.82 73.58,-62.96 178.73,-94.57 313.37,-94.57 126.16,0 227.15,27.45 300.71,82.1 65.46,48.64 110.97,112.2 136.52,192.2l-248.33 77.94c-31.59,-98.08 -96.83,-146.07 -195.13,-146.07 -46.31,0 -82.08,8.32 -107.43,27.23 -25.14,18.91 -37.82,44.23 -37.82,75.84 0,29.31 14.76,52.57 44.26,71.48 24.72,16.01 55.71,27.42 91.45,35.74 6.43,1.45 13.09,2.91 19.93,4.16 44.28,8.29 92.5,18.91 145.07,33.66 52.57,14.75 100.98,31.58 145.26,50.52 29.3,12.64 55.88,29.7 78.94,52.34 11.65,11.22 22.47,23.92 32.41,38.02 29.54,42 44.09,92.48 44.09,153.38z"/>
  <path class="fil0" d="M16933.32 2894.1c0,100.99 -39.89,183.09 -119.69,246.03 -80.02,63.19 -189.32,94.78 -328.12,94.78 -119.92,0 -220.69,-25.35 -302.79,-73.56 -78.13,-46.14 -129.46,-113.06 -153.97,-199.07l234.6 -73.59 11.85 -2.9c35.74,90.39 109.3,136.72 220.9,136.72l2.08 0c107.22,0 161.87,-25.34 161.87,-96.82 0,-25.15 -14.75,-46.13 -44.26,-62.97 -29.3,-16.83 -67.09,-29.52 -111.37,-38.02 -7.29,-1.45 -14.56,-2.93 -22.04,-4.58 -38.02,-7.92 -78.95,-18.71 -123.03,-30.96 -52.57,-14.75 -100.99,-33.66 -145.04,-54.87 -33.03,-15.58 -62.54,-37.19 -87.49,-65.45 -8.51,-9.56 -16.63,-19.96 -24.09,-31.18 -29.3,-44.25 -44.08,-96.83 -44.08,-157.71 0,-96.66 37.84,-176.65 111.38,-239.82 73.58,-62.96 178.73,-94.57 313.4,-94.57 126.13,0 227.12,27.45 300.7,82.1 65.44,48.64 110.98,112.2 136.52,192.2l-248.33 77.94c-31.61,-98.08 -96.85,-146.07 -195.13,-146.07 -46.33,0 -82.07,8.32 -107.45,27.23 -25.14,18.91 -37.82,44.23 -37.82,75.84 0,29.31 14.76,52.57 44.28,71.48 24.72,16.01 55.69,27.42 91.42,35.74 6.44,1.45 13.1,2.91 19.96,4.16 44.26,8.29 92.5,18.91 145.05,33.66 52.57,14.75 100.98,31.58 145.26,50.52 29.3,12.64 55.88,29.7 78.94,52.34 11.65,11.22 22.47,23.92 32.44,38.02 29.51,42 44.05,92.48 44.05,153.38z"/>
  <path class="fil0" d="M12702.65 2818.45c0,58.83 -23.07,107.23 -67.32,142.99 -44.06,35.74 -98.71,54.65 -163.96,54.65l0 -2.08c-44.05,0 -79.82,-10.39 -105.16,-29.51 -25.15,-18.93 -37.82,-46.15 -37.82,-81.89 0,-69.41 41.98,-105.15 128.23,-105.15l246.03 0 0 20.99zm172.49 -557.12c-77.74,-79.99 -189.32,-119.92 -334.36,-119.92 -111.38,0 -208.23,29.5 -288.03,86.24 -75.44,53.41 -130.09,125.53 -162.5,216.34l261.4 81.88c35.75,-100.79 98.94,-151.08 189.13,-151.08 48.41,0 88.28,14.75 117.81,46.34 29.31,31.38 44.06,75.63 44.06,132.36l0 14.78c0,16.83 -4.16,29.47 -10.39,35.71 -6.44,6.27 -18.92,10.6 -37.82,10.6l-262.89 0c-109.3,0 -195.56,27.22 -258.72,79.82 -62.97,52.57 -94.53,126.13 -94.53,218.6 0,96.86 33.64,174.57 100.77,233.6 67.35,58.79 153.58,88.31 260.8,88.31 149.42,0 256.65,-56.95 321.69,-172.49l4.39 147.13 267 0 0 -613.88c0,-143.16 -40.12,-254.57 -117.81,-334.34z"/>
  <path class="fil0" d="M15606.33 2818.45c0,58.83 -23.06,107.23 -67.31,142.99 -44.07,35.74 -98.71,54.65 -163.96,54.65l0 -2.08c-44.06,0 -79.82,-10.39 -105.16,-29.51 -25.15,-18.93 -37.8,-46.15 -37.8,-81.89 0,-69.41 41.95,-105.15 128.21,-105.15l246.02 0 0 20.99zm172.5 -557.12c-77.74,-79.99 -189.32,-119.92 -334.37,-119.92 -111.38,0 -208.23,29.5 -288.02,86.24 -75.44,53.41 -130.1,125.53 -162.51,216.34l261.41 81.88c35.74,-100.79 98.94,-151.08 189.12,-151.08 48.41,0 88.31,14.75 117.82,46.34 29.3,31.38 44.05,75.63 44.05,132.36l0 14.78c0,16.83 -4.15,29.47 -10.36,35.71 -6.46,6.27 -18.94,10.6 -37.85,10.6l-262.88 0c-109.3,0 -195.56,27.22 -258.7,79.82 -62.99,52.57 -94.55,126.13 -94.55,218.6 0,96.86 33.64,174.57 100.76,233.6 67.35,58.79 153.58,88.31 260.81,88.31 149.42,0 256.64,-56.95 321.69,-172.49l4.38 147.13 267.04 0 0 -613.88c0,-143.16 -40.12,-254.57 -117.84,-334.34z"/>
  <path class="fil1" d="M3776.43 2073.93c-7.89,-20.77 -16.13,-41.43 -24.62,-61.99l-264.99 109.77 -128.46 53.2c-1.63,0.7 -8.17,2.18 -9.07,3.78 -1.5,2.6 7.1,17.93 8.67,21.91 5.36,13.33 10.59,26.73 15.71,40.15 19.38,50.97 36.99,102.62 52.74,154.84 60.31,199.82 94.28,408.2 97,617.01 2.51,188.87 -20.31,379.89 -79.64,559.67 -51.89,157.21 -133.3,307.67 -252.84,423.78 -14.83,14.4 -30.15,28.48 -46.26,41.5 42.93,-1.88 86.81,-11.92 128.11,-23.2 46.56,-12.72 91.74,-30.3 134.87,-51.97 71.46,-35.81 136.45,-83.72 193.05,-140.05 94.08,-93.59 164.21,-209.06 214.3,-331.41 56.02,-136.85 87.96,-282.99 102.33,-429.88 15.84,-161.77 10.45,-325.45 -12.07,-486.32 -23.94,-171.04 -67.39,-339.4 -128.83,-500.79zm-787.39 382.55c-13.28,-37.35 -27.48,-74.32 -42.66,-110.91 -105.72,43.81 -211.46,87.59 -317.23,131.4 -23.19,9.61 -46.38,19.21 -69.61,28.85 -3.57,1.47 -12.04,3.15 -14.64,6.03 -2.49,2.79 1.85,8.14 3.35,11.82 6.19,15.28 12.1,30.66 17.76,46.14 48.56,132.57 80.15,271.47 97.91,411.43 19.63,154.88 23.01,313.02 1.15,467.86 -89.47,-65.65 -170.74,-144.4 -243.97,-227.63 -75.32,-85.57 -143.99,-176.77 -204.3,-273.54 -29.94,-48.09 -57.81,-97.51 -83.15,-148.2 -12.51,-25.05 -24.38,-50.42 -35.55,-76.12 -1.68,-3.87 -6.86,-21.96 -9.81,-22.61 -0.74,-0.15 -1.91,1.05 -2.61,1.07 -3.88,0.23 -9.54,3.96 -13.1,5.44 -7.67,3.18 -15.31,6.33 -22.94,9.52 -21.84,9.04 -43.71,18.08 -65.57,27.15 -95.8,39.69 -191.63,79.37 -287.43,119.07 -1.8,0.72 -8.89,2.35 -9.94,4.1 -2.6,4.31 9.14,24.12 11.29,29.11 21.69,49.91 46.54,98.53 73.21,145.96 57.74,102.64 125.06,200.02 200.04,290.79 69.88,84.58 146.28,163.97 230.3,234.58 86.16,72.31 181.46,137.33 286.93,177.9 23.54,9.04 48.21,18.18 73.01,23.04 -42.51,72.83 -108.68,135.05 -189.2,162.67 -89.66,30.79 -187.42,17.21 -274.7,-14.55 -92.6,-33.66 -177.2,-86.91 -254.79,-146.91 -75.77,-58.61 -145.3,-124.91 -209.79,-195.64 -132.64,-145.37 -246.5,-311.29 -328.43,-490.5 -4.9,-10.67 -9.67,-21.41 -14.32,-32.23 -1.08,-2.53 -5.29,-16.38 -7.44,-16.94 -1.25,-0.29 -5.24,2.16 -6.37,2.66 -11.67,4.81 -23.31,9.67 -34.95,14.48 -42.36,17.53 -84.71,35.06 -127.04,52.62 -47.69,19.73 -95.32,39.49 -142.98,59.23 -18.31,7.57 -36.6,15.13 -54.88,22.72 -10.25,4.23 -22.19,7.56 -31.76,13.15 -1.35,0.8 -2.98,1.23 -4.41,1.85 57.31,138.33 128.11,271.12 211.04,395.83 78.92,118.77 168.91,230.32 269.39,331.51 93.67,94.29 196.69,179.82 308.84,251.38 102.56,65.44 213.19,119.44 330.04,154.13 107.11,31.81 219.47,46.81 331.07,37.77 153.26,-12.44 298.75,-73.21 416.42,-171.94 122.05,-102.44 209.33,-241.49 267.66,-388.56 55.31,-139.38 85.96,-287.9 98.91,-437.02 13.02,-150.2 7.96,-301.86 -11.93,-451.26 -21.1,-158.94 -59.23,-315.6 -112.82,-466.7zm-155.82 -1497.17c169.11,85.16 320.32,204.1 452.11,339.42 145.72,149.6 269.01,320.93 367.67,504.9 25.8,48.04 49.87,97 72.18,146.74 5.89,13.13 11.65,26.3 17.31,39.55 1.66,3.91 6.44,20.84 9.37,21.61 1.75,0.46 7.44,-3.1 9.06,-3.78 42.83,-17.73 85.66,-35.46 128.49,-53.22 88.31,-36.57 176.63,-73.13 264.96,-109.72 -8.51,-20.57 -17.33,-40.95 -26.43,-61.24 -70.67,-157.59 -158.98,-307.34 -263,-445.22 -97.83,-129.66 -209.78,-249.21 -335.34,-352.39 -114.06,-93.72 -239.97,-174.5 -376.34,-231.66 -121.92,-51.09 -253.16,-83.15 -385.86,-82.8 -79.87,0.21 -159.69,12.3 -235.55,37.47 -45.81,15.18 -90.19,34.71 -132.12,58.66 -37.17,21.21 -75.31,45.13 -106.97,74.16 20.56,-2.18 41.35,-3.06 62.04,-3.38 166.66,-2.43 330.58,46.41 478.42,120.9zm-1550.26 2074.85c1.45,-0.6 2.93,-1.43 4.41,-1.81 10.74,-2.82 21.53,-8.93 31.78,-13.17l54.88 -22.74c47.63,-19.73 95.32,-39.47 142.96,-59.21l127.03 -52.62c11.64,-4.83 23.32,-9.67 34.97,-14.47 1.17,-0.48 5.7,-1.53 6.38,-2.64 1.16,-1.92 -5.68,-14.67 -6.71,-17.23 -4.36,-10.92 -8.59,-21.92 -12.7,-32.93 -68.73,-184.64 -105.57,-382.48 -114.58,-579.06 -4.39,-95.6 -2.11,-191.68 10.04,-286.68 12.4,-97.33 34.59,-194.78 76.24,-284.04 39.3,-84.21 98.83,-162.9 183.96,-204.56 76.49,-37.41 167.29,-40.2 248.83,-18.75 -14.1,20.98 -25.1,44.88 -35.31,67.92 -45.89,103.24 -67.35,216.65 -77.12,328.68 -9.49,109.37 -7.36,219.52 3.03,328.72 11.17,117.2 32.41,233.66 64.17,347.07 14.67,52.41 31.48,104.36 51.44,154.98 1.98,5.06 7.69,27.38 12.6,28.58 1.98,0.45 8.11,-3.38 9.92,-4.11 95.83,-39.7 191.65,-79.4 287.45,-119.07 21.86,-9.04 43.71,-18.13 65.55,-27.17 7.66,-3.16 15.3,-6.34 22.96,-9.49 3.56,-1.49 10.2,-2.81 13.07,-5.44 0.56,-0.48 2.23,-0.45 2.61,-1.08 1.63,-2.55 -7.49,-19.01 -9.02,-22.94 -10.29,-26.05 -19.8,-52.39 -28.67,-78.95 -17.96,-53.74 -33.16,-108.39 -46.01,-163.57 -25.8,-111.08 -41.73,-224.14 -48.99,-337.89 -7.07,-110.63 -5.28,-223.76 11.57,-333.49 124.95,94.05 234.38,208.23 330.03,331.68 86.41,111.51 162.29,232.05 221.68,360.14 6.97,14.95 13.63,30 20.07,45.18 1.57,3.66 2.28,10.52 5.95,10.72 3.91,0.2 11.07,-4.58 14.66,-6.08l69.65 -28.84c105.71,-43.8 211.46,-87.61 317.23,-131.38 -15.18,-36.59 -31.28,-72.82 -48.32,-108.58 -68.9,-144.74 -152.77,-282.49 -250.2,-409.82 -91.57,-119.7 -195.21,-230.5 -310.65,-327.51 -114.6,-96.3 -241.29,-179.6 -378.99,-239.09 -145.22,-62.73 -305.26,-99.33 -464,-85.47 -153,13.39 -298.85,73.28 -415.99,172.86 -85.33,72.51 -154.2,162.6 -207.43,260.83 -58.1,107.12 -98.13,223.53 -124.38,342.35 -28.7,129.89 -41.1,263.21 -40.62,396.13 0.47,142.63 15.78,285.12 43.9,424.9 29.56,146.8 73.36,290.76 130.67,429.14z"/>
  <path class="fil0" d="M4025.49 2071.07l0 51.64 44.34 0c18.23,0 27.1,-8.34 27.1,-25.55 0,-17.23 -8.87,-26.09 -27.1,-26.09l-44.34 0zm41.21 77.71l-41.21 0 0 59.96 -29.73 0 0 -163.23 74.56 0c18.26,0 32.34,4.16 42.25,13.05 9.9,8.87 15.13,20.89 15.13,36 0,23.44 -10.94,39.09 -32.33,46.9l37.54 66.76 -33.88 0 -32.33 -59.44zm-12 130.36c41.2,0 75.61,-14.6 102.74,-43.3 27.1,-28.68 40.67,-63.59 40.67,-104.26 0,-40.68 -13.57,-75.1 -40.67,-103.77 -27.13,-28.68 -61.05,-42.76 -102.22,-42.76 -41.2,0 -75.62,14.08 -102.71,42.76 -27.13,28.67 -40.68,63.09 -40.68,103.77 0,40.67 13.55,75.08 40.68,103.78 27.09,28.66 61.51,42.76 102.71,42.76l-0.52 1.02zm-123.58 -23.99c-34.44,-34.41 -51.62,-75.59 -51.62,-124.1 0,-48.49 17.18,-89.72 51.62,-124.13 34.41,-34.41 75.61,-51.57 124.1,-51.57 47.99,0 89.17,17.16 123.58,51.57 34.39,34.41 51.62,75.64 51.62,124.13 0,48.51 -17.23,89.69 -51.62,124.1 -34.41,34.41 -75.59,51.62 -123.58,51.62 -48.49,0 -89.69,-17.21 -124.1,-51.62z"/>
  <path class="fil1" d="M2517.36 353.24c-1196.44,0 -2169.83,973.39 -2169.83,2169.78 0,1196.47 973.39,2169.87 2169.83,2169.87 1196.46,0 2169.85,-973.4 2169.85,-2169.87 0,-1196.39 -973.39,-2169.78 -2169.85,-2169.78zm0 4687.22c-1388.07,0 -2517.36,-1129.3 -2517.36,-2517.44 0,-1388.05 1129.29,-2517.34 2517.36,-2517.34 1388.09,0 2517.38,1129.29 2517.38,2517.34 0,1388.14 -1129.29,2517.44 -2517.38,2517.44z"/>
 </g>
</svg>
