<?xml version="1.0" encoding="UTF-8"?>
<!DOCTYPE svg PUBLIC "-//W3C//DTD SVG 1.1//EN" "http://www.w3.org/Graphics/SVG/1.1/DTD/svg11.dtd">
<!-- Creator: CorelDRAW 2021.5 -->
<svg xmlns="http://www.w3.org/2000/svg" xml:space="preserve" width="237.067mm" height="76.1998mm" version="1.1" style="shape-rendering:geometricPrecision; text-rendering:geometricPrecision; image-rendering:optimizeQuality; fill-rule:evenodd; clip-rule:evenodd"
viewBox="0 0 23706.66 7619.98"
 xmlns:xlink="http://www.w3.org/1999/xlink"
 xmlns:xodm="http://www.corel.com/coreldraw/odm/2003">
 <defs>
  <style type="text/css">
   <![CDATA[
    .fil1 {fill:#00E900;fill-rule:nonzero}
    .fil0 {fill:white;fill-rule:nonzero}
   ]]>
  </style>
 </defs>
 <g id="Camada_x0020_1">
  <metadata id="CorelCorpID_0Corel-Layer"/>
  <path class="fil0" d="M8740.8 4802.92c-194.72,0 -348.15,-50.36 -483.67,-132.19 -135.48,-81.86 -237.11,-202.29 -285.11,-340.59l382.1 -119.95c70.56,160.86 200.44,242.76 389.54,242.76 93.09,0 163.69,-16.95 214.49,-50.83 50.8,-33.89 76.18,-81.86 76.18,-141.1 0,-59.3 -33.85,-107.31 -104.39,-141.13 -70.6,-33.89 -155.25,-62.13 -254.05,-84.72 -98.78,-22.56 -197.58,-50.8 -296.36,-84.62 -98.8,-33.86 -183.45,-93.16 -254.01,-175.05 -70.57,-81.79 -104.43,-186.25 -104.43,-313.26 0,-158.08 59.24,-290.7 180.64,-398 121.36,-107.21 285.05,-160.84 491.1,-160.84 183.46,0 335.88,42.32 460.07,127.01 124.19,84.66 208.88,197.57 256.81,338.71l-383.85 121.33c-64.89,-166.51 -174.99,-248.37 -330.21,-248.37 -81.86,0 -146.77,16.9 -191.93,50.79 -45.18,33.89 -67.73,79.04 -67.73,138.31 0,53.62 25.37,98.8 76.21,135.52 50.83,36.64 112.92,62.06 186.27,79 73.4,16.91 155.22,39.54 242.73,67.75 87.51,28.19 169.37,59.26 242.76,93.11 73.36,33.89 135.46,87.51 186.29,163.73 50.75,76.21 76.17,169.37 76.17,279.4 0,160.9 -62.09,293.52 -186.28,398.01 -124.19,104.42 -296.34,155.22 -519.34,155.22z"/>
  <polygon class="fil0" points="10058.65,4774.68 9663.51,4774.68 9663.51,3377.56 10058.65,3377.56 "/>
  <path class="fil0" d="M12183.69 3699.31l0 575.79c0,127.01 50.83,189.1 149.6,189.1 62.09,0 127.02,-25.41 194.75,-79.04l163.69 273.8c-121.36,98.77 -262.46,149.57 -423.32,149.57 -149.64,0 -268.18,-45.15 -355.69,-135.42 -87.47,-90.37 -129.83,-222.99 -129.83,-400.83l0 -575.79 -231.43 0 0 -321.73 248.37 0 81.86 -316.15 296.38 0 0 316.15 403.6 0 0 321.73 -397.98 2.82z"/>
  <path class="fil0" d="M13448 3651.35c-76.22,0 -141.13,25.42 -194.75,76.22 -53.66,50.79 -84.69,118.5 -93.12,206.04l564.48 0c-5.64,-87.54 -33.89,-158.11 -84.68,-208.9 -50.79,-50.8 -115.72,-76.22 -191.93,-76.22l0 2.86zm654.86 760.95c-118.54,256.86 -333.1,393.45 -632.26,393.45 -228.65,0 -406.49,-67.78 -533.47,-200.4 -127.05,-132.67 -189.1,-310.44 -189.1,-530.64 0,-214.52 64.88,-389.47 194.74,-527.78 129.81,-138.3 299.18,-206.05 505.23,-206.05 223,0 395.15,79 519.31,237.04 124.22,158.12 169.36,358.48 135.51,601.21l-945.52 0c8.44,98.83 39.47,174.99 93.12,228.64 53.63,53.62 126.98,79.04 220.18,79.04 129.79,0 228.59,-59.28 296.34,-180.64l335.92 106.13z"/>
  <path class="fil0" d="M14726.36 4777.54l-395.16 0 0 -1397.19 364.09 0 0 254.06c76.25,-191.97 217.38,-287.91 426.22,-287.91 222.99,0 372.6,95.94 448.78,285.05 81.82,-189.11 231.43,-285.05 448.77,-285.05 172.16,0 299.21,56.44 381.04,166.57 81.86,110.01 124.18,259.64 124.18,448.75l0 815.72 -395.12 0 0 -793.17c0,-191.92 -81.89,-287.87 -245.58,-287.87 -81.86,0 -143.93,25.42 -189.11,76.21 -45.15,50.8 -67.74,121.37 -67.74,214.49l0 787.48 -395.15 0 0 -793.13c0,-191.92 -81.83,-287.84 -248.35,-287.84 -81.89,0 -143.98,25.41 -189.09,76.18 -45.19,50.76 -67.78,121.4 -67.78,214.48l0 793.17z"/>
  <path class="fil0" d="M18660.36 4774.68l-395.15 0 0 -1397.12 361.26 0 0 299.21c70.57,-223 206.05,-333.07 406.42,-333.07 59.3,0 107.24,11.27 143.96,31.04l-67.71 381.03c-45.19,-11.3 -93.19,-16.95 -141.17,-16.95 -101.59,0 -177.81,19.74 -228.57,62.1 -50.84,42.36 -76.25,118.58 -76.25,231.46l-2.79 742.3z"/>
  <path class="fil0" d="M19908.13 3671.09c-93.17,0 -169.35,36.7 -225.83,110.09 -56.44,73.36 -84.64,172.17 -84.64,299.21 0,126.94 28.2,225.78 84.64,296.31 56.48,70.57 132.66,107.32 228.65,107.32 124.18,0 220.13,-59.31 285.05,-180.64l330.23 118.47c-53.62,118.54 -132.65,211.73 -239.9,282.3 -107.25,70.53 -239.9,104.38 -395.15,104.38 -206.05,0 -372.56,-67.74 -502.4,-206.04 -129.86,-138.28 -194.75,-313.26 -194.75,-524.96 0,-220.14 67.71,-397.97 203.22,-533.46 135.48,-135.45 304.82,-203.19 508.05,-203.19 285.09,0 488.28,124.16 606.85,372.57l-313.33 160.88c-36.68,-70.62 -79,-121.36 -124.18,-155.21 -45.15,-33.88 -98.78,-50.83 -163.69,-50.83l-2.82 2.8z"/>
  <path class="fil0" d="M10112.31 2970.93c0,135.26 -109.63,244.88 -244.85,244.88 -135.28,0 -244.87,-109.62 -244.87,-244.88 0,-135.21 109.59,-244.84 244.87,-244.84 135.22,0 244.85,109.63 244.85,244.84z"/>
  <path class="fil0" d="M11486.66 4351.2c0,135.55 -53.59,245.75 -160.66,330.24 -107.41,84.82 -254.13,127.21 -440.47,127.21 -160.93,0 -296.22,-34.02 -406.42,-98.73 -104.85,-61.94 -173.77,-151.76 -206.66,-267.21l314.91 -98.77 15.91 -3.9c47.93,121.33 146.71,183.52 296.51,183.52l2.79 0c143.92,0 217.28,-34.02 217.28,-129.96 0,-33.76 -19.8,-61.93 -59.41,-84.52 -39.36,-22.6 -90.09,-39.63 -149.54,-51.03 -9.75,-1.96 -19.49,-3.94 -29.54,-6.16 -51.04,-10.62 -106.01,-25.11 -165.14,-41.55 -70.57,-19.8 -135.55,-45.18 -194.68,-73.65 -44.34,-20.92 -83.99,-49.93 -117.43,-87.86 -11.47,-12.83 -22.32,-26.78 -32.38,-41.85 -39.34,-59.4 -59.13,-129.97 -59.13,-211.69 0,-129.74 50.77,-237.11 149.5,-321.91 98.77,-84.51 239.9,-126.93 420.63,-126.93 169.35,0 304.9,36.84 403.63,110.2 87.88,65.29 148.96,150.61 183.26,257.99l-333.33 104.61c-42.4,-131.65 -129.98,-196.06 -261.92,-196.06 -62.17,0 -110.18,11.16 -144.2,36.55 -33.75,25.37 -50.76,59.37 -50.76,101.79 0,39.34 19.8,70.57 59.41,95.95 33.18,21.49 74.77,36.81 122.74,47.97 8.63,1.95 17.58,3.91 26.76,5.58 59.43,11.13 124.15,25.39 194.72,45.18 70.57,19.81 135.55,42.4 194.98,67.82 39.33,16.97 75,39.87 105.97,70.26 15.63,15.06 30.16,32.11 43.5,51.03 39.64,56.38 59.17,124.13 59.17,205.88z"/>
  <path class="fil0" d="M23280.81 4351.2c0,135.55 -53.54,245.75 -160.66,330.24 -107.41,84.82 -254.12,127.21 -440.43,127.21 -160.97,0 -296.22,-34.02 -406.42,-98.73 -104.89,-61.94 -173.78,-151.76 -206.68,-267.21l314.9 -98.77 15.9 -3.9c47.97,121.33 146.71,183.52 296.52,183.52l2.79 0c143.92,0 217.28,-34.02 217.28,-129.96 0,-33.76 -19.81,-61.93 -59.41,-84.52 -39.33,-22.6 -90.07,-39.63 -149.5,-51.03 -9.78,-1.96 -19.54,-3.94 -29.58,-6.16 -51.03,-10.62 -105.97,-25.11 -165.14,-41.55 -70.57,-19.8 -135.55,-45.18 -194.68,-73.65 -44.35,-20.92 -83.95,-49.93 -117.44,-87.86 -11.42,-12.83 -22.32,-26.78 -32.33,-41.85 -39.34,-59.4 -59.17,-129.97 -59.17,-211.69 0,-129.74 50.79,-237.11 149.5,-321.91 98.76,-84.51 239.9,-126.93 420.67,-126.93 169.3,0 304.85,36.84 403.62,110.2 87.84,65.29 148.97,150.61 183.25,257.99l-333.33 104.61c-42.42,-131.65 -130,-196.06 -261.92,-196.06 -62.19,0 -110.16,11.16 -144.22,36.55 -33.76,25.37 -50.77,59.37 -50.77,101.79 0,39.34 19.81,70.57 59.44,95.95 33.18,21.49 74.74,36.81 122.71,47.97 8.64,1.95 17.59,3.91 26.79,5.58 59.41,11.13 124.16,25.39 194.69,45.18 70.57,19.81 135.55,42.4 194.99,67.82 39.33,16.97 75,39.87 105.96,70.26 15.64,15.06 30.16,32.11 43.54,51.03 39.61,56.38 59.13,124.13 59.13,205.88z"/>
  <path class="fil0" d="M17602.07 4249.65c0,78.97 -30.97,143.93 -90.37,191.93 -59.14,47.97 -132.5,73.36 -220.07,73.36l0 -2.79c-59.13,0 -107.15,-13.95 -141.17,-39.61 -33.75,-25.41 -50.76,-61.95 -50.76,-109.92 0,-93.17 56.35,-141.14 172.12,-141.14l330.25 0 0 28.17zm231.52 -747.81c-104.35,-107.37 -254.12,-160.97 -448.8,-160.97 -149.5,0 -279.51,39.61 -386.62,115.76 -101.25,71.7 -174.61,168.49 -218.12,290.39l350.88 109.9c47.98,-135.28 132.79,-202.79 253.86,-202.79 64.98,0 118.5,19.81 158.13,62.2 39.34,42.12 59.15,101.52 59.15,177.67l0 19.84c0,22.59 -5.59,39.56 -13.96,47.94 -8.64,8.4 -25.38,14.22 -50.76,14.22l-352.87 0c-146.7,0 -262.49,36.54 -347.28,107.14 -84.51,70.57 -126.87,169.3 -126.87,293.43 0,130 45.15,234.31 135.25,313.55 90.4,78.91 206.15,118.54 350.06,118.54 200.58,0 344.5,-76.44 431.8,-231.53l5.89 197.48 358.4 0 0 -823.99c0,-192.17 -53.85,-341.71 -158.14,-448.78z"/>
  <path class="fil0" d="M21499.62 4249.65c0,78.97 -30.96,143.93 -90.36,191.93 -59.14,47.97 -132.49,73.36 -220.07,73.36l0 -2.79c-59.14,0 -107.14,-13.95 -141.16,-39.61 -33.76,-25.41 -50.74,-61.95 -50.74,-109.92 0,-93.17 56.31,-141.14 172.1,-141.14l330.23 0 0 28.17zm231.53 -747.81c-104.35,-107.37 -254.11,-160.97 -448.81,-160.97 -149.5,0 -279.5,39.61 -386.61,115.76 -101.26,71.7 -174.62,168.49 -218.12,290.39l350.88 109.9c47.97,-135.28 132.8,-202.79 253.85,-202.79 64.99,0 118.54,19.81 158.15,62.2 39.33,42.12 59.13,101.52 59.13,177.67l0 19.84c0,22.59 -5.57,39.56 -13.91,47.94 -8.67,8.4 -25.42,14.22 -50.81,14.22l-352.85 0c-146.72,0 -262.5,36.54 -347.25,107.14 -84.55,70.57 -126.91,169.3 -126.91,293.43 0,130 45.15,234.31 135.25,313.55 90.39,78.91 206.14,118.54 350.07,118.54 200.57,0 344.49,-76.44 431.8,-231.53l5.88 197.48 358.44 0 0 -823.99c0,-192.17 -53.85,-341.71 -158.18,-448.78z"/>
  <path class="fil1" d="M5620.58 3250.29c-10.59,-27.87 -21.66,-55.6 -33.05,-83.2l-355.69 147.35 -172.43 71.4c-2.18,0.95 -10.96,2.93 -12.17,5.07 -2.01,3.5 9.52,24.08 11.64,29.42 7.19,17.89 14.21,35.87 21.08,53.89 26.01,68.42 49.65,137.74 70.79,207.83 80.96,268.22 126.55,547.92 130.21,828.2 3.36,253.52 -27.27,509.92 -106.91,751.24 -69.65,211.02 -178.92,412.97 -339.38,568.83 -19.9,19.33 -40.47,38.23 -62.09,55.7 57.62,-2.52 116.53,-16 171.96,-31.13 62.5,-17.08 123.14,-40.67 181.03,-69.76 95.92,-48.08 183.16,-112.38 259.14,-187.99 126.27,-125.63 220.4,-280.61 287.64,-444.85 75.2,-183.68 118.06,-379.85 137.36,-577.02 21.25,-217.14 14.02,-436.84 -16.2,-652.77 -32.14,-229.59 -90.46,-455.57 -172.93,-672.21zm-1056.9 513.49c-17.82,-50.13 -36.88,-99.75 -57.26,-148.86 -141.9,58.8 -283.84,117.57 -425.81,176.36 -31.14,12.91 -62.26,25.79 -93.43,38.73 -4.81,1.98 -16.16,4.23 -19.66,8.1 -3.34,3.74 2.49,10.92 4.5,15.87 8.31,20.51 16.23,41.15 23.84,61.92 65.18,177.95 107.58,364.4 131.41,552.26 26.35,207.9 30.9,420.16 1.55,627.99 -120.09,-88.11 -229.18,-193.81 -327.48,-305.53 -101.09,-114.87 -193.27,-237.28 -274.23,-367.18 -40.17,-64.54 -77.59,-130.88 -111.61,-198.92 -16.78,-33.62 -32.71,-67.67 -47.7,-102.17 -2.26,-5.2 -9.22,-29.48 -13.18,-30.35 -0.98,-0.2 -2.56,1.41 -3.5,1.44 -5.21,0.31 -12.81,5.32 -17.58,7.3 -10.3,4.27 -20.55,8.5 -30.8,12.78 -29.32,12.13 -58.67,24.27 -88.01,36.44 -128.59,53.28 -257.22,106.53 -385.81,159.82 -2.42,0.98 -11.93,3.16 -13.35,5.51 -3.49,5.79 12.27,32.37 15.16,39.07 29.11,67 62.47,132.26 98.27,195.92 77.5,137.78 167.86,268.48 268.51,390.32 93.8,113.53 196.34,220.1 309.12,314.87 115.66,97.06 243.57,184.33 385.15,238.8 31.6,12.13 64.71,24.4 97.99,30.92 -57.05,97.77 -145.87,181.27 -253.96,218.35 -120.35,41.32 -251.56,23.1 -368.72,-19.52 -124.29,-45.19 -237.85,-116.66 -342,-197.21 -101.7,-78.67 -195.03,-167.66 -281.59,-262.6 -178.05,-195.12 -330.88,-417.84 -440.85,-658.39 -6.58,-14.32 -12.98,-28.74 -19.23,-43.26 -1.44,-3.39 -7.09,-21.99 -9.98,-22.73 -1.68,-0.4 -7.03,2.9 -8.54,3.56 -15.67,6.47 -31.3,12.98 -46.93,19.44 -56.85,23.53 -113.7,47.06 -170.51,70.63 -64.01,26.49 -127.96,53.01 -191.93,79.51 -24.58,10.15 -49.12,20.3 -73.66,30.49 -13.76,5.68 -29.78,10.15 -42.63,17.65 -1.81,1.08 -4,1.65 -5.92,2.49 76.93,185.67 171.97,363.92 283.27,531.31 105.93,159.42 226.73,309.16 361.61,444.97 125.73,126.58 264.01,241.38 414.55,337.43 137.66,87.85 286.15,160.33 442.99,206.89 143.79,42.69 294.59,62.83 444.4,50.7 205.72,-16.71 401.01,-98.27 558.95,-230.79 163.82,-137.5 280.98,-324.15 359.27,-521.56 74.24,-187.09 115.39,-386.45 132.77,-586.61 17.48,-201.61 10.68,-405.17 -16.01,-605.71 -28.33,-213.35 -79.5,-423.63 -151.44,-626.45zm-209.15 -2009.62c227,114.31 429.95,273.96 606.85,455.61 195.6,200.8 361.1,430.78 493.52,677.71 34.63,64.48 66.94,130.2 96.89,196.97 7.9,17.62 15.64,35.3 23.23,53.09 2.22,5.24 8.65,27.97 12.57,29.01 2.36,0.61 9.99,-4.17 12.17,-5.08 57.5,-23.8 114.98,-47.6 172.47,-71.44 118.54,-49.08 237.08,-98.16 355.65,-147.28 -11.43,-27.61 -23.26,-54.97 -35.47,-82.2 -94.87,-211.53 -213.41,-412.53 -353.03,-597.61 -131.31,-174.04 -281.58,-334.5 -450.11,-473 -153.11,-125.81 -322.11,-234.22 -505.16,-310.95 -163.66,-68.57 -339.81,-111.61 -517.93,-111.14 -107.21,0.27 -214.35,16.51 -316.18,50.29 -61.49,20.38 -121.06,46.6 -177.34,78.74 -49.89,28.47 -101.09,60.58 -143.58,99.55 27.6,-2.93 55.5,-4.11 83.27,-4.55 223.7,-3.26 443.73,62.3 642.18,162.28zm-2080.88 2785.03c1.94,-0.8 3.92,-1.91 5.91,-2.42 14.42,-3.79 28.91,-12 42.66,-17.68l73.66 -30.53c63.94,-26.48 127.95,-52.97 191.89,-79.47l170.52 -70.63c15.63,-6.49 31.29,-12.98 46.93,-19.43 1.58,-0.64 7.66,-2.05 8.57,-3.54 1.55,-2.58 -7.63,-19.7 -9.01,-23.13 -5.85,-14.65 -11.53,-29.41 -17.05,-44.2 -92.24,-247.84 -141.69,-513.39 -153.8,-777.26 -5.89,-128.32 -2.83,-257.29 13.48,-384.8 16.65,-130.65 46.43,-261.45 102.34,-381.27 52.75,-113.03 132.66,-218.66 246.93,-274.57 102.66,-50.22 224.54,-53.95 334,-25.17 -18.93,28.17 -33.69,60.24 -47.4,91.17 -61.59,138.58 -90.4,290.8 -103.51,441.17 -12.75,146.82 -9.89,294.67 4.07,441.25 14.99,157.3 43.5,313.63 86.12,465.86 19.7,70.35 42.26,140.08 69.06,208.03 2.66,6.78 10.32,36.75 16.9,38.36 2.66,0.6 10.89,-4.54 13.32,-5.52 128.63,-53.28 257.25,-106.57 385.84,-159.82 29.34,-12.14 58.67,-24.34 87.98,-36.47 10.28,-4.25 20.54,-8.51 30.83,-12.75 4.77,-1.99 13.68,-3.77 17.54,-7.3 0.75,-0.63 3,-0.6 3.5,-1.44 2.19,-3.43 -10.05,-25.51 -12.1,-30.79 -13.82,-34.97 -26.59,-70.33 -38.49,-105.97 -24.1,-72.14 -44.52,-145.5 -61.76,-219.57 -34.63,-149.09 -56.01,-300.85 -65.76,-453.54 -9.48,-148.5 -7.09,-300.35 15.53,-447.63 167.73,126.24 314.61,279.5 442.99,445.2 115.99,149.68 217.85,311.48 297.57,483.41 9.34,20.07 18.28,40.27 26.93,60.64 2.11,4.91 3.06,14.13 7.99,14.39 5.24,0.27 14.86,-6.14 19.67,-8.16l93.5 -38.7c141.89,-58.8 283.84,-117.6 425.8,-176.36 -20.36,-49.11 -41.99,-97.74 -64.85,-145.74 -92.48,-194.28 -205.07,-379.18 -335.84,-550.1 -122.92,-160.67 -262.03,-309.39 -416.97,-439.6 -153.84,-129.26 -323.89,-241.07 -508.72,-320.92 -194.93,-84.22 -409.74,-133.33 -622.82,-114.74 -205.37,17.98 -401.14,98.36 -558.37,232.04 -114.54,97.32 -206.99,218.25 -278.43,350.1 -77.99,143.78 -131.72,300.04 -166.95,459.53 -38.53,174.35 -55.17,353.3 -54.53,531.72 0.64,191.45 21.18,382.71 58.93,570.33 39.67,197.05 98.47,390.28 175.4,576.02z"/>
  <path class="fil0" d="M5954.89 3246.45l0 69.32 59.51 0c24.47,0 36.37,-11.2 36.37,-34.3 0,-23.12 -11.9,-35.02 -36.37,-35.02l-59.51 0zm55.31 104.31l-55.31 0 0 80.49 -39.9 0 0 -219.09 100.08 0c24.51,0 43.39,5.58 56.71,17.51 13.28,11.9 20.31,28.04 20.31,48.32 0,31.46 -14.69,52.47 -43.4,62.96l50.39 89.6 -45.49 0 -43.39 -79.79zm-16.11 174.99c55.3,0 101.49,-19.59 137.91,-58.12 36.37,-38.5 54.59,-85.36 54.59,-139.96 0,-54.59 -18.22,-100.79 -54.59,-139.28 -36.42,-38.49 -81.94,-57.39 -137.2,-57.39 -55.3,0 -101.5,18.9 -137.88,57.39 -36.4,38.49 -54.59,84.69 -54.59,139.28 0,54.6 18.19,100.79 54.59,139.32 36.38,38.46 82.58,57.39 137.88,57.39l-0.71 1.37zm-165.87 -32.2c-46.23,-46.19 -69.29,-101.46 -69.29,-166.58 0,-65.09 23.06,-120.43 69.29,-166.62 46.19,-46.19 101.49,-69.22 166.58,-69.22 64.41,0 119.68,23.03 165.87,69.22 46.16,46.19 69.29,101.53 69.29,166.62 0,65.12 -23.13,120.39 -69.29,166.58 -46.19,46.19 -101.46,69.28 -165.87,69.28 -65.09,0 -120.39,-23.09 -166.58,-69.28z"/>
  <path class="fil1" d="M3930.55 940.65c-1605.96,0 -2912.52,1306.56 -2912.52,2912.45 0,1605.99 1306.56,2912.58 2912.52,2912.58 1605.99,0 2912.55,-1306.59 2912.55,-2912.58 0,-1605.89 -1306.56,-2912.45 -2912.55,-2912.45zm0 6291.55c-1863.17,0 -3379,-1515.82 -3379,-3379.1 0,-1863.15 1515.83,-3378.98 3379,-3378.98 1863.21,0 3379.04,1515.83 3379.04,3378.98 0,1863.28 -1515.83,3379.1 -3379.04,3379.1z"/>
 </g>
</svg>
